<svg version="1.0" xmlns="http://www.w3.org/2000/svg" width="512.000000pt" height="512.000000pt" viewBox="0 0 512.000000 512.000000" preserveAspectRatio="xMidYMid meet" style="width: 1690.42px; height: auto;"> <g transform="translate(0.000000,512.000000) scale(0.100000,-0.100000)" fill="#000000" stroke="none" class=""> <path d="M1845 5006 c-51 -11 -65 -20 -105 -63 -30 -33 -54 -73 -72 -122 -17 -46 -21 -68 -12 -60 8 6 14 15 14 20 0 33 47 123 82 158 45 44 89 61 153 60 l40 -1 -39 -9 c-47 -11 -102 -43 -110 -65 -4 -10 5 -6 25 10 17 14 56 33 86 42 49 14 64 15 112 3 l56 -13 -46 -7 c-47 -7 -115 -36 -106 -45 3 -3 18 1 34 9 48 25 104 29 172 13 34 -8 65 -17 67 -19 3 -2 -19 -8 -48 -12 -31 -5 -44 -10 -31 -12 12 -2 37 0 56 5 49 14 92 -8 158 -78 58 -63 58 -74 -1 -39 -20 13 -29 15 -22 7 7 -9 42 -30 78 -48 42 -21 72 -43 85 -63 27 -45 24 -55 -8 -25 -37 34 -61 46 -124 59 -36 8 -65 23 -93 48 -23 20 -49 43 -60 51 -27 21 -124 29 -167 14 -24 -8 -40 -9 -47 -2 -17 17 -82 27 -115 17 -17 -5 -47 -24 -66 -43 -20 -18 -49 -38 -66 -44 -18 -6 -23 -11 -12 -11 25 -1 55 16 100 55 45 41 102 46 154 14 37 -22 48 -53 40 -112 -10 -73 -96 -133 -135 -94 -9 9 -11 16 -6 16 17 0 64 51 64 69 -1 10 -6 6 -16 -11 -8 -15 -24 -33 -35 -39 -18 -9 -26 -6 -51 18 -29 28 -29 28 -7 33 14 4 26 16 30 34 15 54 73 64 108 19 12 -14 24 -24 27 -21 3 3 -6 18 -19 34 -33 37 -81 38 -114 0 -12 -15 -23 -33 -23 -41 0 -10 -13 -13 -55 -9 -37 3 -55 1 -55 -7 0 -7 11 -9 27 -6 23 4 35 -3 73 -42 25 -26 54 -64 65 -84 11 -20 24 -37 28 -37 5 0 2 11 -6 24 -15 23 -15 24 11 30 22 4 34 -2 64 -33 48 -50 63 -106 52 -191 -8 -62 -9 -124 -2 -270 1 -42 -4 -88 -17 -131 -16 -57 -17 -72 -6 -108 6 -23 24 -55 39 -72 l27 -30 -3 65 c-3 45 1 75 13 100 22 45 155 180 155 156 0 -9 14 -34 30 -55 l30 -38 0 50 c0 43 5 57 37 96 21 25 38 45 40 44 1 -2 6 -31 12 -66 14 -89 0 -139 -56 -199 -42 -44 -43 -45 -28 -14 9 19 14 36 12 39 -10 10 -49 -94 -56 -147 l-7 -55 -16 31 c-21 39 -24 85 -10 144 7 25 11 68 11 95 -1 47 -2 44 -14 -30 -8 -44 -14 -86 -14 -92 -1 -7 -16 -30 -35 -50 -47 -53 -59 -80 -58 -130 1 -23 -1 -43 -3 -43 -2 0 -11 12 -19 28 -8 15 -15 21 -16 14 0 -17 52 -92 64 -92 6 0 5 5 -2 12 -15 15 -16 112 -1 141 7 12 22 34 34 49 l22 26 11 -37 c7 -20 22 -47 36 -60 l24 -22 4 60 c4 56 7 63 44 95 l39 34 6 -32 c3 -17 18 -55 31 -84 l25 -52 7 31 c3 17 6 43 6 58 0 15 15 59 34 98 33 69 48 135 33 149 -4 4 -7 -10 -7 -32 -1 -40 -41 -131 -56 -126 -5 1 -10 -8 -11 -20 -1 -13 -3 -42 -5 -65 -2 -24 -4 -43 -5 -43 -7 0 -41 79 -44 100 -2 14 7 46 19 72 24 52 28 113 11 168 -6 19 -12 58 -14 87 l-2 52 29 -15 c16 -8 34 -27 40 -42 6 -15 24 -56 39 -91 16 -35 29 -74 29 -87 0 -13 4 -24 9 -24 11 0 41 73 41 100 0 10 11 36 25 56 14 20 25 47 25 59 0 18 5 21 34 21 19 -1 32 -4 30 -8 -3 -4 28 -18 68 -30 95 -30 236 -30 403 1 74 14 181 24 280 28 156 5 163 5 280 -26 163 -42 254 -88 332 -167 80 -82 108 -131 134 -239 39 -164 12 -288 -81 -367 -44 -38 -95 -57 -178 -65 -53 -6 -54 -5 -43 15 32 59 -2 118 -120 211 -84 66 -129 114 -163 171 -14 25 -26 38 -26 30 1 -35 80 -128 174 -205 110 -89 146 -139 130 -184 l-9 -26 -265 -6 c-146 -4 -300 -10 -342 -14 -91 -9 -108 0 -108 52 0 28 8 43 43 76 41 39 26 34 -22 -8 -32 -27 -42 -58 -31 -94 9 -31 8 -31 -30 -31 -41 0 -50 11 -50 62 0 23 10 41 40 70 46 43 43 50 -5 14 -43 -33 -60 -76 -47 -116 10 -27 9 -29 -10 -27 -26 4 -48 33 -48 63 0 30 44 80 91 105 37 19 52 19 282 13 161 -5 255 -12 281 -20 21 -8 44 -14 50 -13 18 1 -67 37 -89 38 -40 2 -162 69 -211 117 -105 103 -137 241 -81 350 52 102 111 130 256 121 70 -4 88 -3 66 4 -16 6 -66 11 -110 12 -66 2 -87 -2 -122 -20 -75 -40 -132 -140 -133 -230 0 -97 66 -220 150 -278 l40 -28 -41 -19 c-34 -15 -66 -18 -178 -18 -134 0 -138 -1 -183 -29 -25 -16 -53 -39 -62 -52 -17 -26 -22 -99 -6 -99 6 0 10 -3 10 -7 0 -13 -1553 -5 -1561 8 -4 7 -8 5 -12 -5 -10 -25 -69 -56 -106 -56 -25 0 -41 -8 -65 -33 -38 -41 -59 -49 -91 -37 -31 12 -51 73 -36 112 6 15 28 39 51 54 22 15 38 29 36 31 -7 8 -85 -46 -96 -66 -15 -29 -12 -83 6 -110 14 -19 14 -25 3 -32 -20 -13 -61 -2 -81 23 -12 13 -18 37 -18 70 0 43 4 54 33 82 17 17 43 39 57 48 14 9 20 17 14 17 -21 2 -92 -61 -109 -95 -16 -35 -17 -79 0 -116 12 -29 -14 -21 -46 13 -16 17 -29 41 -29 53 0 38 20 95 43 122 32 37 145 74 257 84 87 8 221 33 310 60 69 20 186 42 273 50 57 6 95 14 106 24 10 9 21 13 24 9 13 -13 7 -69 -12 -106 -10 -20 -16 -37 -12 -37 4 0 28 13 53 29 44 28 78 65 78 86 0 5 -8 -3 -19 -18 -10 -16 -35 -39 -54 -53 l-37 -25 10 26 c12 33 13 105 1 105 -5 0 -9 6 -8 13 1 32 -4 57 -11 57 -5 0 -7 -12 -5 -27 6 -44 -10 -57 -79 -64 -35 -3 -64 -5 -66 -3 -7 5 28 61 62 99 31 35 35 37 36 18 0 -12 5 -25 10 -28 13 -8 13 11 0 35 -7 13 -5 24 10 43 40 51 80 150 79 197 l-1 45 -12 -60 c-16 -82 -45 -138 -111 -215 -30 -36 -63 -81 -72 -102 -12 -27 -24 -38 -46 -42 -17 -3 -32 -4 -35 -1 -3 2 1 25 8 50 13 46 20 54 137 161 23 22 45 52 49 68 5 21 4 27 -5 22 -6 -4 -11 -15 -11 -25 0 -10 -37 -51 -81 -92 -80 -72 -109 -115 -109 -163 0 -13 -7 -26 -15 -30 -12 -4 -15 3 -15 34 0 21 4 50 10 64 5 14 6 26 1 26 -12 0 -35 -96 -28 -115 9 -23 -34 -31 -50 -9 -19 26 -50 113 -56 157 -3 21 -8 41 -12 45 -19 17 9 -109 35 -163 16 -33 26 -62 24 -65 -17 -16 -114 166 -114 212 0 13 14 52 30 86 17 35 30 70 30 77 0 7 15 33 33 57 34 46 57 91 56 111 0 7 -9 -6 -20 -28 -10 -22 -35 -62 -54 -89 -19 -26 -35 -56 -35 -66 0 -10 -11 -38 -25 -61 -14 -24 -25 -58 -25 -75 0 -17 -7 -51 -15 -74 -8 -24 -13 -45 -10 -48 5 -5 25 42 26 61 0 15 43 -79 53 -116 9 -38 -1 -67 -24 -67 -30 0 -49 39 -70 141 -14 75 -19 86 -20 54 l-2 -40 -10 35 c-17 58 -4 194 24 248 19 40 33 52 88 79 36 18 70 32 75 32 12 0 -27 -33 -83 -70 -23 -16 -47 -44 -60 -70 -25 -54 -37 -119 -22 -119 5 0 10 15 10 33 0 55 39 118 100 160 30 20 58 47 62 60 4 12 11 40 17 62 6 23 31 64 56 94 25 29 45 60 45 69 0 11 -7 5 -19 -14 -11 -18 -25 -35 -31 -39 -21 -13 -70 -98 -70 -122 0 -19 -10 -28 -47 -44 -145 -64 -190 -81 -205 -82 -10 -1 -18 -5 -18 -9 0 -5 -9 -4 -20 2 -11 6 -20 7 -20 3 0 -4 -10 3 -21 17 -17 21 -20 22 -14 5 6 -19 5 -19 -12 -2 -19 18 -23 91 -7 107 6 6 28 3 54 -7 35 -12 62 -14 121 -9 70 7 77 10 93 37 10 17 16 33 13 36 -3 3 -12 -8 -21 -25 -14 -26 -20 -29 -66 -31 -28 0 -56 -3 -61 -7 -17 -10 -106 16 -125 37 -9 10 -19 41 -22 68 -4 47 -3 50 27 65 17 9 35 25 41 36 12 23 2 27 -14 5 -8 -11 -23 -13 -63 -9 -81 10 -80 13 85 124 57 39 98 70 92 70 -6 0 -5 11 5 29 9 18 53 54 109 92 l95 62 -2 52 c-2 42 3 59 26 92 24 34 62 63 84 63 4 0 -7 -15 -24 -32 -37 -40 -48 -61 -57 -111 -4 -21 -10 -46 -13 -55 -6 -15 -5 -15 10 -3 10 8 17 28 17 48 0 47 25 96 66 133 l35 30 -30 0 c-37 0 -98 -51 -117 -97 -8 -18 -14 -52 -14 -75 -1 -39 -5 -46 -43 -73 -23 -16 -64 -43 -90 -58 -34 -20 -54 -40 -67 -68 -13 -31 -37 -54 -96 -94 -44 -29 -92 -65 -109 -78 -29 -24 -29 -26 -16 -59 7 -18 17 -58 23 -88 5 -30 16 -62 24 -70 13 -13 13 -10 -1 22 -8 21 -15 44 -15 53 0 21 29 89 35 83 3 -3 -2 -19 -10 -35 -14 -29 -13 -58 6 -118 1 -5 -1 -29 -5 -53 -10 -54 7 -98 45 -117 40 -21 73 -19 129 10 63 32 66 31 40 -5 -29 -40 -53 -162 -45 -224 3 -27 17 -70 31 -95 13 -25 24 -55 24 -67 0 -12 10 -33 21 -48 12 -15 20 -29 18 -30 -10 -10 -172 -36 -229 -38 -42 -1 -85 -10 -122 -25 -32 -12 -66 -23 -77 -23 -28 0 -87 -61 -101 -106 -7 -20 -10 -54 -7 -75 5 -38 5 -38 -18 -23 -30 20 -37 39 -29 83 10 54 29 84 79 129 31 27 62 44 98 52 137 33 357 107 357 121 0 4 -19 0 -42 -10 -40 -16 -171 -57 -309 -95 -30 -9 -71 -26 -89 -38 -84 -57 -132 -168 -96 -223 34 -51 200 -120 236 -97 10 6 34 9 53 5 29 -4 39 0 68 29 25 26 46 37 77 41 23 3 42 2 42 -1 0 -9 597 -12 1892 -12 l986 0 -29 -31 c-20 -22 -29 -41 -29 -65 0 -22 -5 -34 -14 -34 -26 0 -103 -79 -133 -137 -41 -77 -63 -172 -63 -266 l0 -77 -69 0 -68 0 -5 109 c-4 92 -8 117 -32 164 -30 61 -77 105 -153 140 -48 22 -51 22 -653 25 -446 2 -616 0 -648 -9 -63 -17 -116 -60 -143 -116 l-24 -48 0 -400 0 -400 510 -3 c569 -3 560 -4 637 66 50 45 84 112 100 196 l13 66 77 0 78 0 0 -440 0 -440 -79 0 -79 0 -6 43 c-16 107 -106 228 -192 258 -31 11 -141 14 -549 14 l-510 0 0 -420 0 -421 25 -49 c21 -39 37 -55 79 -77 l53 -28 573 0 c645 0 637 -1 721 73 55 48 87 97 108 163 l16 49 -6 -50 c-13 -110 -104 -238 -192 -272 -43 -17 -93 -18 -647 -18 l-600 0 -60 30 c-72 36 -119 93 -134 165 -7 32 -11 208 -11 481 l0 430 578 -3 c573 -3 577 -3 618 -25 90 -48 138 -109 179 -227 13 -37 27 -61 35 -61 13 0 15 56 18 388 2 359 1 388 -15 385 -9 -2 -19 -14 -23 -28 -31 -109 -43 -141 -71 -178 -17 -23 -50 -56 -74 -72 -85 -58 -105 -60 -703 -60 l-543 0 3 447 c3 415 4 451 22 483 35 65 67 100 119 128 l52 27 640 3 c414 2 657 -1 688 -8 72 -15 154 -59 194 -103 45 -50 68 -104 83 -190 7 -37 15 -65 19 -62 3 4 11 39 17 78 7 40 22 98 34 129 26 70 105 160 161 184 21 10 39 22 39 27 0 18 -104 -50 -142 -93 -53 -59 -75 -104 -97 -198 -11 -42 -19 -65 -20 -50 -1 41 -34 120 -66 163 -37 48 -95 87 -175 116 l-65 24 -645 0 -645 0 -55 -26 c-64 -30 -112 -74 -143 -133 -22 -40 -22 -48 -25 -499 l-3 -458 583 3 583 3 53 28 c95 50 155 130 183 242 7 28 17 54 21 59 4 6 8 -162 8 -372 0 -348 -6 -442 -24 -349 -11 57 -62 151 -107 195 -24 24 -69 55 -99 70 l-55 27 -570 0 -570 0 0 -470 0 -470 26 -50 c14 -28 44 -64 68 -82 81 -62 83 -62 720 -64 396 0 591 3 619 10 125 34 245 213 228 342 -6 45 -5 49 13 49 57 0 71 -106 28 -202 -54 -121 -141 -207 -225 -224 -18 -4 -35 -11 -38 -16 -3 -5 6 -6 23 -2 102 23 201 117 252 238 37 89 40 142 9 181 l-22 28 30 -7 c16 -4 39 -18 52 -32 21 -24 22 -31 22 -252 l0 -227 -1309 0 c-1193 0 -1308 1 -1301 16 5 9 56 49 114 89 117 80 168 131 197 194 18 39 19 81 19 896 0 925 0 927 -55 1042 -67 143 -212 238 -361 238 -42 0 -53 4 -57 18 -3 11 -5 7 -6 -10 -1 -26 -1 -26 87 -30 65 -3 99 -10 135 -27 103 -50 178 -145 223 -281 17 -51 19 -115 22 -914 3 -967 7 -911 -73 -1003 -25 -29 -78 -73 -118 -100 -39 -26 -89 -63 -109 -82 -34 -30 -38 -38 -38 -82 l0 -49 403 -1 c237 0 393 -4 381 -9 -12 -5 -25 -13 -28 -19 -4 -5 7 -3 24 6 76 37 211 -37 256 -141 7 -17 13 -25 14 -18 0 21 -36 85 -62 108 -36 33 -76 56 -111 64 -23 6 -5 8 61 9 l93 1 16 -37 c12 -30 14 -58 9 -138 -4 -70 -3 -96 4 -89 18 18 15 196 -3 233 l-15 31 186 1 c103 0 210 0 237 0 107 0 1102 -2 1138 -1 35 0 37 2 37 33 0 25 7 37 33 54 45 30 82 43 127 43 52 0 83 -15 104 -51 27 -46 6 -109 -36 -109 -17 0 -20 5 -16 30 5 35 -4 38 -33 9 -14 -14 -18 -27 -13 -42 18 -62 81 -83 140 -47 67 42 80 129 27 187 -16 16 -21 29 -14 31 6 2 11 12 11 22 0 25 -51 44 -106 37 l-45 -5 19 22 c11 11 25 32 32 44 24 47 149 79 200 52 43 -23 50 -90 9 -90 -26 0 -24 -26 5 -45 29 -19 64 -8 95 31 31 40 27 86 -10 129 -27 31 -30 39 -21 59 15 34 4 64 -31 82 -28 15 -32 15 -56 -4 -30 -22 -43 -59 -17 -48 9 3 23 9 32 13 12 4 15 2 12 -8 -2 -7 -31 -18 -66 -24 -68 -13 -66 -16 -16 46 11 15 42 69 69 120 53 105 80 139 107 139 23 0 23 12 -1 34 -14 13 -28 16 -50 11 -32 -7 -86 -56 -98 -89 -11 -29 -20 178 -10 234 4 25 17 58 29 74 20 28 20 30 3 42 -11 8 -29 11 -44 7 -53 -12 -73 -44 -81 -126 l-5 -59 -47 94 c-52 105 -65 161 -48 212 19 59 81 83 128 50 21 -14 22 -14 22 11 0 14 -11 37 -25 50 -35 36 -84 34 -130 -6 -60 -53 -81 -117 -66 -196 l8 -42 -29 15 c-17 9 -36 13 -44 10 -16 -6 -19 -42 -4 -51 7 -4 9 2 4 19 -4 18 -2 26 6 26 22 0 76 -39 90 -65 7 -14 17 -25 21 -25 5 0 -3 21 -16 46 -49 91 -25 220 48 264 45 28 81 26 106 -6 23 -29 29 -56 9 -36 -22 22 -75 14 -110 -17 -31 -28 -33 -33 -33 -98 0 -62 4 -75 49 -158 27 -49 59 -115 72 -145 13 -30 23 -46 23 -35 0 11 -5 33 -12 49 -16 37 -6 146 16 179 16 25 47 36 80 29 16 -3 16 -6 -3 -32 -34 -47 -44 -123 -34 -237 8 -85 6 -108 -8 -147 -9 -26 -22 -54 -28 -62 -7 -8 -8 -14 -3 -14 6 0 25 34 44 76 43 99 84 144 132 144 20 0 39 -4 42 -10 3 -5 0 -10 -8 -10 -26 0 -69 -54 -114 -145 -25 -49 -62 -111 -83 -137 -43 -54 -146 -142 -158 -134 -4 2 -8 -4 -9 -14 -1 -14 15 -6 69 36 39 30 80 56 92 59 11 2 39 7 61 10 44 8 65 20 65 41 0 17 -32 18 -49 2 -10 -11 -11 -9 -5 5 10 28 37 37 65 24 28 -14 38 -60 18 -83 -10 -13 -8 -19 13 -37 37 -32 51 -64 43 -104 -10 -54 -81 -87 -107 -49 -4 5 3 15 15 21 29 14 33 55 9 85 -15 19 -31 24 -80 28 -52 4 -67 0 -111 -23 -27 -15 -60 -39 -73 -53 -13 -14 -17 -22 -10 -18 20 12 14 -9 -10 -32 -13 -11 -58 -43 -100 -71 l-78 -51 0 51 c0 49 3 55 59 114 69 75 103 140 109 212 7 78 -14 140 -66 195 -36 39 -41 49 -28 54 20 8 64 -3 93 -22 34 -22 54 -69 60 -142 4 -55 1 -76 -17 -117 -14 -34 -16 -45 -6 -35 8 8 26 46 40 84 35 94 36 199 2 273 -52 110 -171 183 -252 154 -41 -15 -49 -11 -39 18 11 36 64 53 115 36 21 -7 23 -6 12 7 -18 22 -89 14 -119 -14 -13 -12 -23 -33 -23 -46 0 -23 2 -24 33 -16 111 27 205 -26 261 -146 20 -43 26 -70 25 -125 -1 -105 -14 -136 -22 -57 -8 78 -31 118 -79 143 -42 22 -70 24 -100 8 -19 -10 -18 -13 25 -53 111 -107 98 -261 -32 -406 l-50 -55 -1 173 c0 99 -4 182 -10 193 -16 28 -63 49 -113 49 l-43 0 -12 -58 c-16 -78 -46 -135 -99 -188 -51 -50 -71 -53 -128 -21 -71 40 -75 57 -75 342 l0 250 87 0 88 0 3 453 2 452 -90 0 -90 0 0 38 c1 60 17 116 39 131 22 14 30 76 11 83 -14 4 6 70 31 102 11 14 16 26 11 26 -15 0 -51 -62 -58 -99 l-7 -31 -23 50 c-14 31 -36 57 -56 70 l-33 20 100 -1 c121 -2 135 2 135 46 0 43 37 88 91 109 41 17 42 16 67 -6 13 -13 35 -45 48 -73 21 -43 24 -65 24 -163 0 -145 9 -162 85 -162 67 0 85 23 85 107 1 86 24 203 55 272 28 62 110 151 140 151 11 0 15 10 15 37 0 31 7 44 50 84 35 33 50 55 50 73 l0 26 -152 0 c-144 1 -151 2 -114 15 22 8 51 23 65 33 42 31 90 105 104 161 l13 52 28 -39 c55 -80 89 -180 94 -279 5 -103 -6 -177 -45 -298 -29 -91 -50 -130 -106 -198 -54 -65 -122 -188 -148 -266 -26 -77 -31 -190 -10 -241 8 -19 31 -58 53 -86 51 -68 55 -97 24 -158 -14 -27 -23 -53 -20 -58 7 -11 55 1 77 20 9 8 17 11 17 7 0 -11 49 35 61 57 5 10 14 41 19 70 13 65 3 98 -57 191 -49 76 -62 134 -43 191 6 20 50 87 96 149 151 202 214 355 222 544 9 231 -46 365 -254 611 -38 45 -89 109 -114 143 -86 119 -183 176 -385 231 -109 30 -132 32 -255 32 -99 -1 -186 -10 -329 -33 -107 -17 -215 -31 -240 -30 -55 1 -222 47 -176 48 17 1 40 4 53 7 46 13 19 19 -68 16 l-90 -4 0 33 c0 35 -52 124 -78 134 -8 3 0 -12 17 -34 56 -70 65 -134 32 -206 -17 -36 -20 -37 -21 -15 -1 14 -5 34 -10 45 -5 13 -8 -9 -8 -62 -1 -46 -5 -91 -11 -100 -10 -17 -10 -17 -11 0 0 10 -11 39 -24 65 -33 66 -72 196 -80 267 l-7 60 20 -25 c19 -23 41 -69 55 -114 4 -10 9 -16 13 -13 11 11 -28 96 -63 138 -19 23 -34 50 -34 62 0 14 -30 51 -83 102 -45 44 -95 95 -110 114 -15 18 -30 32 -32 29 -2 -2 13 -25 34 -51 28 -34 43 -65 56 -117 10 -39 20 -69 22 -66 3 3 0 28 -7 56 -7 28 -10 53 -8 55 2 3 28 -19 57 -49 49 -49 53 -58 62 -122 6 -38 17 -96 24 -129 7 -33 12 -61 11 -62 -1 -1 -16 7 -34 17 -24 15 -32 27 -32 47 0 38 -17 95 -35 118 -12 18 -13 14 0 -30 46 -169 46 -200 -1 -256 l-35 -42 6 49 c4 30 2 66 -5 89 -7 22 -15 93 -19 157 -3 65 -11 122 -17 128 -9 9 -9 -3 -2 -42 6 -29 8 -74 5 -99 -3 -26 0 -70 8 -99 8 -29 14 -87 14 -129 0 -42 0 -91 0 -110 l0 -35 -19 30 c-17 25 -19 43 -16 144 4 110 3 109 -10 -7 -3 -34 -16 -67 -36 -98 -33 -50 -45 -54 -28 -10 11 29 4 115 -9 115 -4 0 -6 -24 -3 -53 5 -60 -10 -98 -61 -156 -43 -50 -60 -97 -54 -151 l5 -45 -19 35 c-24 46 -24 122 1 195 11 32 20 76 20 97 0 27 12 61 36 105 45 79 57 175 30 233 l-16 35 8 -35 c16 -77 5 -151 -35 -229 l-38 -73 -9 37 c-5 24 -4 63 3 106 23 143 10 223 -49 284 l-29 30 25 28 25 29 47 -24 c80 -39 126 -161 99 -263 -7 -25 -6 -28 5 -17 8 8 13 38 13 81 0 55 -5 78 -30 126 -25 48 -39 63 -77 82 -48 24 -55 36 -39 62 14 23 99 6 149 -29 33 -23 40 -26 33 -11 -15 28 -91 61 -139 61 -31 0 -42 4 -42 15 0 9 -7 29 -15 45 -13 26 -14 30 -1 30 8 0 29 -12 47 -27 l33 -28 -18 27 c-10 15 -25 29 -34 31 -9 3 6 5 35 6 68 1 97 -11 154 -64 26 -24 60 -47 76 -51 83 -18 103 -27 146 -60 26 -20 63 -59 82 -86 20 -27 42 -51 50 -54 26 -10 16 -21 -12 -16 -16 3 -51 27 -80 53 -28 27 -57 49 -63 49 -15 0 92 -99 136 -126 19 -12 61 -46 93 -78 54 -51 101 -73 101 -46 0 6 -10 10 -23 10 -14 0 -40 18 -67 46 -25 25 -61 54 -80 65 l-35 20 33 -7 c38 -7 42 7 9 33 -26 21 -71 87 -106 156 -14 27 -38 56 -58 68 -26 16 -31 24 -21 30 10 7 9 9 -4 9 -9 0 -38 25 -64 56 -49 57 -126 105 -194 119 -19 4 -52 16 -73 27 -22 11 -62 23 -90 28 -29 5 -59 11 -67 13 -8 3 -42 0 -75 -7z m-651 -660 c-5 -14 -9 -15 -15 -5 -5 8 -3 17 4 21 15 9 19 4 11 -16z m3098 -611 c181 -229 223 -467 129 -737 -32 -94 -96 -208 -167 -297 -85 -107 -114 -163 -114 -217 0 -54 11 -84 62 -162 32 -50 43 -76 46 -118 5 -58 -16 -132 -45 -155 -13 -12 -13 -9 1 25 9 21 15 57 15 80 l-1 41 -8 -46 c-9 -51 -45 -129 -60 -129 -18 0 -25 -2 -42 -11 -15 -8 -13 -1 7 37 34 63 32 93 -10 150 -65 91 -77 128 -73 229 4 83 8 98 51 190 26 54 74 133 106 175 70 90 90 128 127 240 25 77 28 98 29 230 0 141 -1 147 -31 217 -18 40 -46 90 -64 113 -24 30 -33 53 -36 92 -5 52 -24 144 -39 183 -9 25 20 -7 117 -130z m-2726 -124 c-12 -19 -24 -12 -19 10 4 13 9 17 15 11 6 -6 7 -15 4 -21z m1954 -55 c23 -13 19 -14 -50 -14 -71 0 -74 1 -45 13 38 18 64 18 95 1z m770 -230 c0 -13 -6 -25 -12 -27 -7 -2 -665 -3 -1463 -1 -1381 2 -1448 3 -1425 20 27 18 -76 17 2428 30 l472 2 0 -24z m-647 -254 c31 -13 57 -26 57 -30 -1 -4 -20 -16 -43 -28 -23 -11 -51 -33 -61 -50 l-20 -29 -683 0 c-758 0 -707 -5 -658 67 31 46 82 77 143 88 26 5 308 7 627 6 l580 -1 58 -23z m-65 -174 l-3 -23 -687 -3 -688 -2 0 25 0 25 691 0 690 0 -3 -22z m-268 -56 c-36 -18 -80 -74 -80 -101 1 -9 10 0 20 21 40 74 107 100 147 56 19 -21 53 -80 53 -92 0 -3 -151 -5 -336 -5 l-335 0 7 22 c11 38 54 87 81 93 38 10 73 -13 99 -66 13 -25 24 -38 24 -30 0 19 -37 81 -59 97 -22 17 -72 16 -99 -3 -12 -8 -34 -38 -47 -65 l-25 -49 -106 0 -105 0 27 49 c49 91 116 91 162 1 12 -24 22 -36 22 -26 0 25 -37 84 -60 96 -48 26 -114 -8 -140 -70 l-13 -31 -17 39 c-19 42 -53 72 -83 72 -34 0 -77 -30 -96 -67 l-18 -37 -18 35 c-21 41 -44 69 -58 69 -6 0 -1 -10 10 -22 23 -25 53 -81 53 -98 0 -6 -25 -10 -60 -10 l-60 0 0 69 0 69 573 1 c551 1 571 0 537 -17z m-826 -24 c14 -13 33 -40 41 -60 l15 -38 -100 0 c-55 0 -100 2 -100 5 0 17 43 86 62 99 31 22 52 20 82 -6z m996 -138 l0 -30 -640 0 -640 0 0 30 0 30 640 0 640 0 0 -30z m480 -45 c-7 -9 -29 -15 -55 -15 -26 0 -48 6 -55 15 -11 13 -4 15 55 15 59 0 66 -2 55 -15z m-510 3 c0 -2 -6 -21 -13 -43 -9 -29 -17 -40 -32 -40 -12 0 -22 -9 -26 -25 -10 -34 -11 -245 -1 -236 4 4 9 62 12 129 4 100 8 122 20 122 12 0 15 -14 13 -73 -2 -87 -25 -170 -61 -225 l-27 -41 -3 164 c-1 100 -7 169 -13 177 -14 16 -45 17 -56 1 -4 -7 -10 -98 -13 -203 -5 -188 -5 -190 -27 -193 l-23 -3 0 186 c0 109 -4 194 -10 206 -14 25 -56 25 -70 0 -6 -12 -10 -98 -10 -210 l0 -191 -27 0 -28 0 3 182 c3 198 -4 230 -46 236 -49 7 -52 -6 -52 -219 l0 -199 -30 0 -30 0 0 191 c0 112 -4 198 -10 210 -7 12 -21 19 -40 19 -19 0 -33 -7 -40 -19 -6 -12 -10 -98 -10 -210 l0 -191 -30 0 -30 0 0 198 c0 212 -2 222 -50 222 -48 0 -50 -10 -50 -222 l0 -198 -30 0 -30 0 0 199 c0 192 -1 200 -21 215 -12 8 -29 12 -38 9 -38 -13 -41 -32 -41 -230 l0 -193 -30 0 -30 0 0 198 c0 213 -2 222 -52 222 -42 0 -48 -28 -48 -236 l0 -184 -25 0 -25 0 0 194 c0 207 -4 226 -51 226 -16 0 -19 7 -19 40 l0 40 625 0 c344 0 625 -1 625 -2z m-1199 -120 c4 -16 8 -107 9 -203 l1 -175 -31 0 -30 0 0 206 0 205 22 -3 c14 -2 24 -13 29 -30z m147 20 c9 -9 12 -68 12 -205 l0 -193 -35 0 -35 0 0 198 c0 109 3 202 7 205 10 11 38 8 51 -5z m160 0 c9 -9 12 -68 12 -205 l0 -193 -40 0 -40 0 0 186 c0 109 4 193 10 205 12 21 40 25 58 7z m160 0 c9 -9 12 -68 12 -205 l0 -193 -40 0 -40 0 0 189 c0 104 3 196 6 205 7 19 45 21 62 4z m158 -2 c3 -8 6 -100 7 -205 l2 -191 -37 0 -38 0 0 186 c0 109 4 193 10 205 12 22 48 26 56 5z m158 -2 c3 -9 6 -101 6 -205 l0 -189 -35 0 -35 0 0 189 c0 104 3 196 6 205 3 9 16 16 29 16 13 0 26 -7 29 -16z m146 -3 c6 -12 10 -96 10 -205 l0 -186 -35 0 -35 0 0 186 c0 184 6 224 35 224 8 0 19 -9 25 -19z m134 3 c3 -9 6 -87 6 -174 0 -153 -1 -159 -22 -174 -12 -9 -26 -16 -30 -16 -12 0 -10 324 2 354 11 29 35 34 44 10z m-1054 -1044 c-1 -340 -3 -391 -17 -405 -36 -37 -38 -19 -41 393 l-2 402 30 0 30 0 0 -390z m62 23 c-2 -203 0 -383 3 -401 8 -44 46 -63 75 -37 19 18 20 31 20 412 l0 393 30 0 30 0 0 -392 c0 -350 2 -393 17 -410 20 -22 46 -23 67 -2 14 13 16 65 16 410 l0 394 30 0 30 0 0 -392 c0 -350 2 -393 17 -410 20 -22 41 -23 65 -1 17 15 18 41 18 410 l0 393 30 0 30 0 0 -392 c0 -350 2 -393 17 -410 22 -24 49 -23 67 4 14 19 16 75 16 405 0 242 -4 383 -10 383 -6 0 -10 -142 -10 -386 0 -212 -2 -389 -5 -395 -10 -15 -52 -10 -59 7 -3 9 -6 189 -6 400 l0 384 75 0 75 0 0 -400 c0 -397 0 -399 21 -411 28 -15 64 1 72 32 3 13 5 193 4 401 l-2 378 28 0 27 0 0 -394 c0 -345 2 -397 16 -410 20 -20 33 -20 56 1 17 15 18 41 18 411 0 355 2 394 16 388 9 -3 20 -6 25 -6 5 0 9 -159 9 -387 0 -346 2 -388 17 -405 20 -22 27 -22 47 -2 14 14 16 59 14 372 l-3 357 -5 -357 c-3 -219 -9 -361 -15 -367 -6 -6 -16 -7 -24 -1 -12 7 -15 77 -19 395 -5 377 -4 387 14 377 27 -15 94 -83 94 -96 -1 -6 1 -159 4 -339 5 -332 9 -366 42 -353 7 3 18 -9 25 -27 7 -18 14 -34 16 -37 2 -3 -272 -4 -608 -2 -411 1 -608 -1 -604 -8 4 -7 215 -10 617 -10 609 0 612 0 657 -22 l45 -22 -29 -10 c-19 -7 -240 -11 -615 -11 l-585 0 -41 22 c-41 22 -74 64 -89 110 -5 18 -3 22 10 17 9 -4 24 1 35 11 19 17 20 33 20 412 l0 393 28 0 27 0 -3 -367z m88 -20 c0 -214 -4 -394 -9 -401 -4 -8 -19 -12 -32 -10 l-24 3 -3 398 -2 397 35 0 35 0 0 -387z m160 3 c0 -211 -3 -391 -6 -400 -7 -19 -45 -21 -62 -4 -9 9 -12 112 -12 400 l0 388 40 0 40 0 0 -384z m160 -3 c0 -340 -2 -389 -16 -404 -16 -18 -42 -15 -56 5 -4 6 -8 185 -8 399 l0 387 40 0 40 0 0 -387z m308 -10 l-3 -398 -30 0 -30 0 -3 398 -2 397 35 0 35 0 -2 -397z m152 13 c0 -211 -3 -391 -6 -400 -8 -21 -50 -21 -58 0 -3 9 -6 189 -6 400 l0 384 35 0 35 0 0 -384z m220 179 c14 -43 27 -562 16 -592 -6 -14 -9 -15 -21 -2 -12 11 -15 73 -17 331 -2 174 0 314 4 310 3 -4 12 -25 18 -47z m823 -874 c8 -8 7 -15 -4 -27 -15 -14 -13 -18 12 -44 23 -23 29 -37 29 -72 0 -52 -21 -85 -66 -104 -35 -15 -80 -6 -96 19 -12 18 -9 55 4 63 7 4 8 3 4 -5 -10 -16 12 -41 34 -41 10 0 28 12 40 27 29 38 21 88 -20 126 -25 22 -40 27 -82 27 -51 0 -52 0 -30 16 13 9 35 20 50 25 34 11 110 5 125 -10z m-323 -126 l0 -25 -1310 0 -1310 0 0 25 0 25 1310 0 1310 0 0 -25z" class=""></path> <path d="M4176 2273 c-6 -14 -5 -15 5 -6 7 7 10 15 7 18 -3 3 -9 -2 -12 -12z"></path> <path d="M4160 2115 c0 -20 -7 -49 -15 -65 -9 -17 -13 -30 -10 -30 10 0 45 84 45 108 0 12 -4 22 -10 22 -5 0 -10 -16 -10 -35z"></path> <path d="M3056 2829 c-28 -22 -56 -69 -56 -91 1 -7 8 1 17 17 24 46 64 85 89 85 29 0 70 -34 95 -78 13 -26 18 -29 13 -12 -23 86 -100 125 -158 79z"></path>  <path d="M1769 4840 c-15 -26 -39 -50 -62 -62 -22 -11 -37 -22 -34 -25 15 -14 91 46 114 90 23 46 7 43 -18 -3z"></path> <path d="M1529 4675 c-36 -19 -50 -34 -63 -66 -12 -29 -14 -45 -7 -52 8 -8 11 -4 11 11 0 58 53 108 124 119 41 6 46 13 10 13 -16 -1 -50 -12 -75 -25z"></path>   <path d="M2140 4617 c0 -5 8 -22 17 -40 9 -18 22 -57 29 -87 12 -51 12 -53 13 -17 1 21 -6 53 -14 73 -15 37 -45 84 -45 71z"></path> <path d="M1476 4546 c-3 -14 -20 -33 -36 -43 -17 -9 -30 -22 -30 -27 0 -6 5 -5 12 2 20 20 28 14 29 -20 l1 -33 7 35 c10 50 16 57 58 64 79 14 100 31 41 31 -18 0 -43 4 -54 8 -18 6 -23 3 -28 -17z m37 -13 c-7 -2 -19 -2 -25 0 -7 3 -2 5 12 5 14 0 19 -2 13 -5z"></path> <path d="M1820 4491 c48 -77 51 -115 14 -204 -14 -34 -28 -91 -31 -126 l-6 -64 -20 38 c-27 53 -26 146 2 210 11 26 21 59 21 74 0 30 -32 105 -49 116 -7 4 -3 -10 8 -31 26 -48 26 -103 1 -174 -11 -30 -19 -81 -20 -113 0 -74 -19 -118 -76 -179 -57 -61 -74 -102 -73 -175 l2 -58 7 66 c10 79 16 93 77 161 25 28 53 68 62 89 l17 37 18 -44 c10 -25 16 -53 13 -64 -3 -11 -1 -20 3 -20 10 0 16 30 25 123 3 32 17 86 31 120 44 104 35 167 -36 247 -27 31 -26 28 10 -29z" class=""></path>  <path d="M1382 4473 c-7 -2 -17 -14 -23 -26 -11 -21 -10 -20 15 2 14 14 26 26 26 28 0 3 0 3 -18 -4z"></path> <path d="M1654 4416 c-58 -58 -66 -78 -12 -31 41 36 64 64 56 70 -2 1 -21 -17 -44 -39z" class=""></path> <path d="M1985 4388 c0 -54 -6 -75 -42 -148 -33 -65 -43 -78 -43 -57 0 15 -4 27 -10 27 -6 0 -10 -28 -10 -62 0 -77 -17 -108 -102 -186 -34 -32 -67 -70 -74 -87 l-13 -30 -1 33 c0 18 7 46 15 62 25 48 2 34 -28 -18 -15 -26 -39 -65 -52 -87 -14 -22 -24 -49 -24 -60 0 -12 10 0 23 30 13 28 31 59 40 70 15 19 15 18 16 -27 0 -27 5 -48 10 -48 6 0 10 10 10 23 0 34 36 86 111 157 44 42 70 76 74 95 4 17 28 75 55 130 60 125 71 164 59 210 -6 19 -11 35 -12 35 -1 0 -2 -28 -2 -62z"></path>  <path d="M2659 4347 c19 -23 111 -90 116 -85 4 4 -79 71 -115 92 -13 8 -13 7 -1 -7z"></path> <path d="M1275 4300 c39 -9 162 -14 154 -6 -2 2 -47 6 -99 9 -66 4 -83 3 -55 -3z" class=""></path>  <path d="M1320 4238 c0 -12 88 -10 95 2 4 6 -13 9 -44 8 -28 -1 -51 -6 -51 -10z" class=""></path>        <path d="M2521 3713 c-1 -7 -40 -53 -88 -104 -49 -50 -98 -107 -110 -128 -30 -48 -29 -34 7 79 16 52 28 96 26 97 -8 8 -45 -98 -56 -157 -6 -36 -15 -80 -20 -98 -12 -47 3 -32 39 42 21 42 62 97 122 160 50 53 88 101 86 108 -4 10 -6 10 -6 1z"></path>   <path d="M1470 3130 c0 -5 24 -10 53 -10 91 0 157 -67 209 -210 l23 -65 0 -885 0 -885 -23 -56 c-30 -76 -90 -142 -157 -174 -62 -29 -72 -40 -21 -22 93 32 161 108 200 222 21 59 21 76 21 910 0 939 2 902 -64 1033 -34 68 -106 137 -152 146 -47 9 -89 7 -89 -4z"></path>  <path d="M1664 2893 c21 -57 21 -70 21 -948 l0 -890 -32 -59 c-22 -39 -26 -53 -14 -42 11 10 30 41 43 69 l23 52 3 800 c2 514 0 832 -7 890 -11 91 -36 185 -50 185 -5 0 2 -26 13 -57z" class=""></path>  <path d="M1325 2753 c-43 -11 -81 -66 -69 -98 8 -19 24 -20 24 -1 0 20 35 30 58 17 58 -31 67 -157 17 -249 -24 -44 -145 -186 -145 -170 0 3 7 23 16 44 25 60 15 131 -25 166 -17 15 -43 28 -57 28 -32 0 -74 -42 -73 -72 l2 -23 4 22 c11 58 87 77 125 32 51 -60 27 -166 -61 -265 -56 -63 -128 -175 -101 -159 8 5 11 3 8 -6 -3 -8 -11 -13 -17 -11 -7 1 -10 -2 -7 -6 3 -5 -7 -38 -21 -73 -25 -58 -27 -76 -28 -189 0 -112 3 -131 26 -186 23 -55 114 -182 132 -183 4 -1 -8 22 -28 50 -19 28 -42 74 -50 102 -19 65 -19 173 0 210 8 15 12 35 9 45 -4 11 -3 13 3 5 6 -8 19 -2 45 22 20 18 34 36 31 38 -6 7 46 42 91 61 51 21 89 20 137 -4 77 -40 105 -135 54 -186 -30 -30 -47 -27 -55 7 -8 35 -50 33 -68 -3 -11 -23 -10 -32 3 -57 20 -40 48 -54 88 -45 44 9 72 29 86 62 11 24 9 23 -22 -10 -32 -35 -55 -44 -97 -38 -42 6 -67 69 -38 98 16 16 39 15 32 -2 -6 -16 21 -46 42 -46 8 0 26 11 39 25 19 19 25 35 25 71 0 57 -21 94 -73 128 -79 50 -166 28 -264 -67 -58 -56 -68 -52 -25 11 51 76 119 113 211 113 74 1 117 -18 163 -69 67 -74 74 -150 23 -248 -19 -37 -35 -79 -35 -95 0 -30 33 -61 56 -52 30 11 11 -28 -21 -44 -61 -32 -114 53 -85 134 9 26 9 27 -5 9 -23 -30 -19 -100 8 -130 32 -36 67 -42 100 -16 38 30 36 60 -3 60 -24 0 -31 5 -36 27 -6 21 1 43 29 95 39 71 46 120 27 188 -13 47 -63 106 -111 130 -163 84 -349 -31 -387 -239 -11 -58 0 -177 19 -212 6 -11 8 -23 5 -26 -7 -8 -44 80 -62 147 -28 107 -12 246 39 348 52 106 146 172 243 172 45 0 58 -5 94 -35 42 -35 80 -46 80 -23 0 6 13 -1 29 -16 40 -38 75 -33 79 12 3 34 -30 101 -51 103 -7 0 -2 4 11 9 55 23 1 73 -81 74 -29 1 -72 -2 -97 -6 l-45 -8 70 37 c75 40 191 146 219 201 22 42 8 62 -41 62 -31 0 -33 2 -23 21 15 26 14 132 0 159 -9 16 -15 18 -31 10 -11 -6 -24 -19 -31 -29 -10 -17 -13 -16 -37 10 -27 29 -61 41 -96 32z m102 -52 l23 -33 9 25 c6 14 19 30 29 36 16 9 21 7 26 -12 19 -72 -1 -156 -48 -203 -26 -27 -68 -104 -56 -104 4 0 18 20 30 45 35 72 94 104 139 76 12 -8 10 -16 -13 -49 -57 -82 -96 -119 -185 -171 -52 -30 -88 -58 -84 -64 3 -6 1 -7 -5 -3 -10 6 -92 -39 -92 -51 0 -2 18 6 41 18 59 29 156 48 212 39 76 -11 102 -50 34 -50 l-32 0 25 -13 c53 -27 91 -120 54 -134 -25 -9 -45 8 -74 62 -29 53 -79 85 -135 84 -23 0 -17 -4 25 -15 66 -18 90 -38 90 -76 0 -37 -13 -35 -61 6 -22 18 -53 36 -70 40 -69 13 -180 -35 -233 -101 -10 -13 -21 -22 -23 -19 -12 12 50 90 169 213 97 99 135 147 153 188 47 106 25 224 -48 249 -21 8 -31 6 -47 -9 -21 -19 -21 -19 -10 10 16 43 38 56 90 53 38 -3 48 -8 67 -37z"></path> <path d="M1454 2445 c-10 -8 -14 -15 -8 -15 5 0 19 7 30 15 10 8 14 15 8 15 -5 0 -19 -7 -30 -15z"></path> <path d="M1107 2413 c13 -2 30 -14 38 -26 30 -43 14 -107 -47 -194 -18 -26 -43 -65 -55 -87 l-22 -41 -1 47 c0 80 -73 135 -119 89 -28 -28 -27 -49 3 -62 45 -21 59 -100 35 -209 l-11 -51 -16 33 c-13 25 -24 34 -47 36 -16 1 -36 -2 -44 -7 -11 -7 -10 -12 7 -29 20 -20 37 -84 45 -172 l4 -46 -32 4 c-18 2 -35 0 -39 -6 -9 -14 42 -133 70 -163 21 -22 23 -27 10 -32 -19 -7 -20 -45 -3 -68 17 -22 61 -43 132 -64 72 -20 127 -48 178 -88 51 -40 40 -46 -20 -10 -41 24 -58 28 -118 27 -52 0 -81 -6 -112 -22 -49 -25 -52 -34 -20 -57 14 -10 18 -18 11 -23 -22 -14 -46 -77 -47 -121 -1 -89 49 -141 137 -141 37 0 48 5 70 31 14 17 26 38 26 48 0 24 -41 61 -47 43 -6 -17 -32 -42 -44 -42 -17 0 -59 48 -59 67 0 10 8 34 18 52 50 94 200 96 294 4 37 -36 75 -121 65 -146 -4 -7 -6 -6 -6 5 -1 26 -60 70 -89 66 -27 -3 -41 -36 -15 -34 9 0 25 -17 37 -39 29 -55 26 -132 -8 -212 -14 -34 -26 -73 -26 -85 0 -20 34 62 61 147 20 65 2 144 -43 192 l-21 23 22 0 c31 0 67 -40 83 -91 l13 -44 3 52 c6 95 -56 192 -144 229 -44 18 -138 18 -174 -1 -63 -32 -92 -102 -65 -154 22 -44 62 -52 91 -18 26 30 34 26 34 -19 0 -47 -35 -68 -96 -61 -64 7 -95 40 -102 105 -5 61 11 115 44 141 30 24 30 31 -1 31 -38 0 -31 29 13 47 20 9 64 16 97 16 52 1 71 -5 134 -39 40 -21 84 -49 98 -61 52 -49 34 -19 -27 42 -85 86 -135 117 -254 156 -100 33 -135 61 -122 94 7 20 46 19 74 -1 13 -9 25 -14 28 -11 3 2 -19 18 -48 35 -30 16 -59 36 -65 43 -20 26 -61 139 -52 145 15 9 66 -6 82 -24 9 -9 29 -47 46 -85 35 -79 50 -90 20 -16 -27 69 -38 90 -61 116 -15 16 -23 44 -28 100 -9 82 -21 127 -39 138 -19 11 -12 25 12 25 30 0 55 -27 63 -68 4 -18 10 -32 14 -32 11 0 30 122 30 195 0 64 -2 69 -35 101 -19 18 -35 35 -35 38 0 3 11 13 24 21 19 13 28 13 49 4 38 -17 51 -58 44 -137 l-7 -67 25 53 c14 30 49 90 79 135 29 45 57 93 61 107 21 66 -6 131 -53 129 -23 -2 -24 -2 -5 -6z" class=""></path> <path d="M996 2229 c2 -4 13 -7 24 -6 23 2 17 10 -10 12 -10 1 -17 -2 -14 -6z"></path> <path d="M1260 2100 c-9 -6 -10 -10 -3 -10 6 0 15 5 18 10 8 12 4 12 -15 0z"></path> <path d="M1175 1850 c-15 -6 -9 -8 23 -7 26 1 48 -5 58 -14 14 -15 13 -17 -14 -22 -38 -8 -111 -64 -134 -103 -12 -21 -20 -59 -23 -110 -4 -67 -3 -72 5 -35 13 63 54 121 85 121 37 0 39 -16 6 -74 -33 -57 -40 -120 -20 -172 5 -16 35 -60 66 -99 73 -91 73 -91 73 -77 0 6 -8 19 -18 29 -42 41 -83 103 -76 114 4 8 3 9 -5 5 -16 -10 -41 53 -41 101 1 22 13 61 30 93 35 65 37 76 10 90 -24 13 -49 2 -81 -37 l-22 -28 6 33 c4 18 15 43 24 56 26 34 87 75 122 82 17 4 31 9 31 13 0 12 -15 28 -37 40 -25 13 -40 13 -68 1z"></path>  <path d="M1291 1396 c-14 -16 -28 -95 -15 -83 4 4 9 15 10 24 6 39 15 63 24 63 18 0 32 -42 46 -139 15 -111 32 -192 40 -200 7 -8 -7 101 -16 119 -4 8 -11 49 -15 90 -8 81 -19 120 -38 132 -17 11 -23 10 -36 -6z" class=""></path> <path d="M1433 1288 c-29 -32 -43 -63 -42 -90 1 -16 4 -12 11 14 14 52 50 88 88 88 35 0 36 -4 11 -61 -10 -25 -21 -81 -25 -128 -6 -92 -35 -168 -89 -236 -17 -22 -23 -33 -12 -25 17 14 18 13 12 -3 -15 -40 12 -4 38 50 43 91 54 130 65 225 6 49 17 106 25 126 9 20 13 42 11 49 -9 22 -70 16 -93 -9z" class=""></path>       <path d="M1034 796 l-28 -23 25 -8 c55 -17 88 -64 113 -163 9 -34 19 -68 22 -76 5 -14 2 -14 -25 0 -32 16 -51 12 -51 -10 0 -7 29 -41 64 -74 45 -44 59 -62 46 -62 -10 0 -28 -12 -40 -27 l-22 -28 51 -7 c33 -5 89 -28 152 -61 85 -46 97 -56 84 -67 -19 -16 -19 -49 1 -78 20 -29 29 -28 44 7 15 36 31 41 150 41 83 1 102 4 150 28 134 66 171 223 75 319 -26 26 -41 33 -72 33 -76 0 -128 -58 -107 -119 17 -47 105 -54 96 -7 -4 22 15 20 28 -3 20 -39 12 -73 -28 -110 -95 -91 -239 -77 -339 31 -62 69 -85 121 -93 213 -5 71 -7 76 -14 44 -17 -78 42 -220 120 -289 52 -45 92 -62 161 -68 53 -4 70 -1 117 22 61 30 96 75 96 124 0 34 -22 62 -49 62 -14 0 -17 -6 -13 -25 3 -20 0 -25 -17 -25 -11 0 -30 9 -41 20 -59 59 36 145 120 110 66 -28 98 -150 58 -226 -48 -89 -123 -124 -268 -124 -99 0 -140 -13 -140 -46 0 -17 -12 -18 -28 -2 -29 29 3 78 51 78 15 0 27 5 27 11 0 7 -10 9 -25 5 -25 -6 -85 18 -205 84 -30 16 -70 30 -87 30 -42 0 -42 17 -1 35 30 12 37 11 81 -12 70 -35 48 -10 -24 28 -61 33 -154 123 -143 140 3 5 18 2 35 -6 16 -9 29 -13 29 -9 0 3 12 -9 26 -26 15 -17 29 -29 31 -26 3 3 -6 19 -21 36 -14 17 -33 57 -41 88 -9 31 -23 76 -31 99 -16 43 -64 93 -90 93 -21 0 -17 18 7 31 28 15 95 6 119 -16 24 -22 46 -87 64 -191 13 -76 44 -155 66 -169 15 -10 12 11 -4 25 -17 14 -42 86 -51 150 -20 144 -70 220 -143 220 -29 0 -49 -7 -68 -24z" class=""></path>  <path d="M1535 586 c-53 -70 -51 -156 5 -186 28 -15 66 -9 61 10 -11 44 -12 60 -1 98 6 23 25 58 41 77 17 19 26 35 21 35 -16 0 -58 -60 -72 -104 -7 -21 -10 -56 -7 -77 4 -32 2 -39 -11 -39 -36 0 -62 39 -62 90 0 37 13 65 48 103 14 15 21 27 14 27 -6 0 -23 -15 -37 -34z"></path> <path d="M2395 601 c14 -45 7 -219 -10 -252 -9 -17 -15 -35 -13 -41 2 -6 13 11 25 39 17 41 20 69 19 151 -1 70 -5 105 -15 114 -11 11 -12 9 -6 -11z"></path> <path d="M2623 605 c-61 -26 -123 -76 -164 -131 -23 -30 -39 -57 -37 -60 3 -3 15 10 27 29 29 47 100 111 153 138 54 28 172 37 261 19 34 -6 101 -27 149 -46 48 -19 100 -34 116 -34 32 0 72 25 72 45 0 18 -29 47 -41 40 -5 -4 -9 -1 -9 5 0 6 -4 8 -10 5 -18 -11 -10 -26 13 -23 17 2 22 -2 22 -21 0 -18 -8 -27 -29 -34 -23 -8 -45 -3 -115 23 -47 18 -108 39 -136 46 -67 18 -230 17 -272 -1z"></path> <path d="M3257 593 c14 -25 14 -32 0 -65 -19 -46 -55 -70 -116 -76 -48 -4 -84 10 -178 69 -47 30 -41 14 7 -17 57 -38 83 -98 78 -178 -3 -46 -10 -73 -28 -99 -80 -116 -251 -97 -291 33 -5 17 -8 19 -8 7 -1 -10 6 -31 14 -47 33 -64 115 -99 186 -80 50 14 124 85 134 129 3 17 10 31 14 31 4 0 26 -16 49 -36 50 -42 56 -79 17 -94 -22 -8 -24 -13 -15 -30 6 -11 22 -23 36 -26 31 -8 68 24 84 72 14 42 6 73 -28 102 l-27 23 80 -6 c112 -8 129 -13 156 -41 23 -25 23 -26 6 -56 -11 -19 -14 -35 -9 -40 17 -17 65 -4 85 24 18 24 18 28 4 57 -13 26 -13 31 -1 31 8 0 14 7 14 16 0 22 -104 68 -126 56 -13 -7 -6 -11 29 -16 25 -4 56 -16 69 -27 l23 -20 -29 6 -28 6 21 -27 c25 -32 27 -67 5 -88 -31 -31 -76 -16 -47 16 23 26 7 66 -36 92 -27 15 -56 20 -136 22 -56 2 -115 6 -131 9 l-29 6 25 -15 c14 -8 32 -15 41 -16 30 0 59 -44 59 -89 0 -53 -37 -96 -73 -85 -32 10 -33 12 -8 35 36 34 25 76 -29 117 -33 25 -47 43 -51 68 -6 33 3 45 17 23 10 -17 157 -3 235 22 141 46 271 133 288 192 7 26 10 29 16 14 12 -28 -3 -66 -47 -113 -22 -24 -36 -44 -31 -44 5 0 19 10 31 23 16 17 34 23 78 25 46 3 61 8 73 25 8 12 34 41 58 65 24 23 40 42 36 42 -10 0 -64 -51 -91 -85 -11 -14 -33 -28 -49 -31 -15 -2 -38 -7 -51 -9 l-23 -6 22 43 c12 24 31 54 43 68 l21 25 -25 -22 c-25 -22 -26 -22 -38 -3 -16 26 -32 25 -32 -2 0 -32 -84 -108 -160 -145 -181 -88 -365 -107 -386 -39 -3 11 -13 29 -22 39 -19 22 -9 22 25 0 33 -22 108 -22 150 0 57 30 94 122 61 155 -21 21 -28 13 -11 -15z" class=""></path> <path d="M2019 567 c-18 -12 -40 -34 -48 -49 -14 -24 -14 -30 1 -61 13 -27 14 -38 5 -48 -15 -17 15 5 61 43 58 49 166 33 212 -32 30 -42 37 -107 16 -148 -19 -37 -54 -51 -71 -28 -15 20 -39 21 -55 1 -10 -12 -9 -20 4 -40 9 -14 24 -25 34 -26 71 -4 114 16 167 79 19 23 22 30 9 25 -13 -5 -15 -3 -9 8 5 8 4 11 -1 6 -5 -5 -9 -15 -9 -24 0 -26 -69 -74 -114 -80 -45 -6 -71 8 -71 38 0 23 23 25 40 4 19 -23 46 -18 74 16 51 61 24 174 -53 217 -76 42 -150 36 -190 -14 l-20 -25 -17 26 c-16 24 -16 29 -1 59 19 42 75 70 120 61 18 -4 52 -18 76 -31 30 -17 39 -19 30 -7 -20 23 -89 53 -125 53 -17 0 -46 -10 -65 -23z" class=""></path> <path d="M2670 561 c-45 -14 -104 -49 -129 -75 -14 -14 -20 -26 -16 -26 5 0 0 -6 -11 -14 -24 -17 -79 -94 -72 -101 3 -3 17 13 32 35 15 23 41 50 59 60 37 23 95 26 121 7 16 -12 14 -14 -23 -26 -42 -12 -69 -35 -176 -152 -76 -83 -154 -124 -236 -124 -63 0 -92 18 -104 62 -13 52 47 95 84 61 11 -11 13 -10 9 2 -3 9 -19 16 -40 18 -59 5 -84 -47 -53 -107 19 -37 64 -55 123 -49 84 9 139 43 257 164 97 97 116 112 153 119 23 4 42 10 42 15 0 5 -20 18 -45 30 -38 18 -50 20 -77 11 -45 -16 -47 -14 -13 14 95 80 250 96 329 34 53 -41 75 -118 51 -175 -23 -55 -82 -72 -115 -32 -15 19 -20 20 -34 9 -24 -20 -19 -57 13 -93 25 -28 36 -33 75 -33 31 0 51 6 63 19 17 18 17 18 -4 7 -24 -12 -82 -15 -108 -5 -24 10 -46 59 -37 84 l8 21 18 -20 c41 -46 124 -9 141 62 17 67 -38 163 -112 194 -35 14 -132 16 -173 4z" class=""></path> <path d="M3767 490 c65 -13 103 -38 120 -77 27 -66 -8 -143 -66 -143 -39 0 -44 10 -16 32 33 26 32 68 -1 107 -54 64 -166 61 -303 -9 -96 -49 -87 -52 14 -3 136 64 264 57 295 -17 16 -39 1 -80 -30 -80 -27 0 -25 -16 5 -36 52 -34 125 25 125 102 0 71 -73 135 -152 133 -32 -1 -32 -1 9 -9z" class=""></path> <path d="M2769 395 c-29 -16 -53 -64 -46 -92 3 -12 5 -8 6 10 1 40 51 87 90 87 42 0 58 -30 37 -70 -8 -17 -11 -30 -7 -30 9 0 31 45 31 64 0 20 -34 46 -61 46 -13 -1 -36 -7 -50 -15z"></path> <path d="M1830 336 c0 -47 -72 -110 -133 -118 -14 -2 -30 -8 -34 -12 -4 -5 10 -6 32 -3 47 8 115 53 131 87 21 44 26 70 15 70 -6 0 -11 -11 -11 -24z"></path>   </g> </svg>